HIERARCHY
ROOT Hips
{
	OFFSET 0.000000 0.000000 0.000000
	CHANNELS 6 Xposition Yposition Zposition Zrotation Yrotation Xrotation 
	JOINT LHipJoint
	{
		OFFSET 0.000000 0.000000 0.000000
		CHANNELS 3 Zrotation Yrotation Xrotation
		JOINT LeftUpLeg
		{
			OFFSET 1.363060 -1.794630 0.839290
			CHANNELS 3 Zrotation Yrotation Xrotation
			JOINT LeftLeg
			{
				OFFSET 2.448110 -6.726130 0.000000
				CHANNELS 3 Zrotation Yrotation Xrotation
				JOINT LeftFoot
				{
					OFFSET 2.562200 -7.039590 0.000000
					CHANNELS 3 Zrotation Yrotation Xrotation
					JOINT LeftToeBase
					{
						OFFSET 0.157640 -0.433110 2.322550
						CHANNELS 3 Zrotation Yrotation Xrotation
						End Site
						{
							OFFSET 0.000000 0.000000 0.000000
						}
					}
				}
			}
		}
	}
	JOINT RHipJoint
	{
		OFFSET 0.000000 0.000000 0.000000
		CHANNELS 3 Zrotation Yrotation Xrotation
		JOINT RightUpLeg
		{
			OFFSET -1.305520 -1.794630 0.839290
			CHANNELS 3 Zrotation Yrotation Xrotation
			JOINT RightLeg
			{
				OFFSET -2.542530 -6.985550 0.000000
				CHANNELS 3 Zrotation Yrotation Xrotation
				JOINT RightFoot
				{
					OFFSET -2.568260 -7.056230 0.000000
					CHANNELS 3 Zrotation Yrotation Xrotation
					JOINT RightToeBase
					{
						OFFSET -0.164730 -0.452590 2.363150
						CHANNELS 3 Zrotation Yrotation Xrotation
						End Site
						{
							OFFSET 0.000000 0.000000 0.000000
						}
					}
				}
			}
		}
	}
	JOINT LowerBack
	{
		OFFSET 0.000000 0.000000 0.000000
		CHANNELS 3 Zrotation Yrotation Xrotation
		JOINT Spine
		{
			OFFSET 0.028270 2.035590 -0.193380
			CHANNELS 3 Zrotation Yrotation Xrotation
			JOINT Spine1
			{
				OFFSET 0.056720 2.048850 -0.042750
				CHANNELS 3 Zrotation Yrotation Xrotation
				JOINT Neck
				{
					OFFSET 0.000000 0.000000 0.000000
					CHANNELS 3 Zrotation Yrotation Xrotation
					JOINT Neck1
					{
						OFFSET -0.054170 1.746240 0.172020
						CHANNELS 3 Zrotation Yrotation Xrotation
						JOINT Head
						{
							OFFSET 0.104070 1.761360 -0.123970
							CHANNELS 3 Zrotation Yrotation Xrotation
							End Site
							{
								OFFSET 0.000000 0.000000 0.000000
							}
						}
					}
				}
				JOINT LeftShoulder
				{
					OFFSET 0.000000 0.000000 0.000000
					CHANNELS 3 Zrotation Yrotation Xrotation
					JOINT LeftArm
					{
						OFFSET 3.362410 1.200890 -0.311210
						CHANNELS 3 Zrotation Yrotation Xrotation
						JOINT LeftForeArm
						{
							OFFSET 4.983000 -0.000000 -0.000000
							CHANNELS 3 Zrotation Yrotation Xrotation
							JOINT LeftHand
							{
								OFFSET 3.483560 -0.000000 -0.000000
								CHANNELS 3 Zrotation Yrotation Xrotation
								JOINT LeftFingerBase
								{
									OFFSET 0.000000 0.000000 0.000000
									CHANNELS 3 Zrotation Yrotation Xrotation
									JOINT LeftHandIndex1
									{
										OFFSET 0.715260 -0.000000 -0.000000
										CHANNELS 3 Zrotation Yrotation Xrotation
										End Site
										{
											OFFSET 0.000000 0.000000 0.000000
										}
									}
								}
								JOINT LThumb
								{
									OFFSET 0.000000 0.000000 0.000000
									CHANNELS 3 Zrotation Yrotation Xrotation
									End Site
									{
										OFFSET 0.000000 0.000000 0.000000
									}
								}
							}
						}
					}
				}
				JOINT RightShoulder
				{
					OFFSET 0.000000 0.000000 0.000000
					CHANNELS 3 Zrotation Yrotation Xrotation
					JOINT RightArm
					{
						OFFSET -3.136600 1.374050 -0.404650
						CHANNELS 3 Zrotation Yrotation Xrotation
						JOINT RightForeArm
						{
							OFFSET -5.241900 -0.000000 -0.000000
							CHANNELS 3 Zrotation Yrotation Xrotation
							JOINT RightHand
							{
								OFFSET -3.444170 -0.000000 -0.000000
								CHANNELS 3 Zrotation Yrotation Xrotation
								JOINT RightFingerBase
								{
									OFFSET 0.000000 0.000000 0.000000
									CHANNELS 3 Zrotation Yrotation Xrotation
									JOINT RightHandIndex1
									{
										OFFSET -0.622530 -0.000000 -0.000000
										CHANNELS 3 Zrotation Yrotation Xrotation
										End Site
										{
											OFFSET 0.000000 0.000000 0.000000
										}
									}
								}
								JOINT RThumb
								{
									OFFSET 0.000000 0.000000 0.000000
									CHANNELS 3 Zrotation Yrotation Xrotation
									End Site
									{
										OFFSET 0.000000 0.000000 0.000000
									}
								}
							}
						}
					}
				}
			}
		}
	}
}
MOTION
Frames: 11
Frame Time: 0.008333
-1.852298 17.278843 -0.636382 -171.006039 -76.248259 -169.447715 -10.620524 -0.396780 -3.177397 -4.702785 14.968406 -20.857287 -2.309844 -0.449147 4.300370 1.471845 9.581363 -1.430962 1.164399 -0.000000 -43.098400 8.639437 0.210190 -0.065585 9.431901 5.394154 -19.876707 2.892575 0.881642 4.229292 -0.331300 -1.984522 0.509824 -0.843100 -0.000000 -60.720900 2.714561 -1.386646 5.739361 -0.146017 -1.354058 -2.003673 -6.315409 -1.259057 -1.198550 8.088512 -5.496600 -0.251886 -3.120752 -0.296890 1.794761 0.000000 0.000000 0.000000 2.493008 1.324527 0.705417 -61.083386 -12.117027 14.442286 -179.677994 -86.569294 179.966016 3.735706 8.786085 0.291587 -0.144197 0.234462 -0.000000 0.000000 0.000000 0.000000 0.000000 0.000000 0.000000 7.346172 -2.502674 -0.665757 67.331611 10.875320 19.452383 179.858417 87.811439 -179.995672 0.734164 2.107491 0.017183 -0.038528 -0.357721 -0.000000 0.000000 0.000000 0.000000 0.000000 0.000000 0.000000 
-1.851537 17.277777 -0.669313 -171.225318 -76.226787 -169.596564 -10.627744 -0.376843 -3.159458 -4.469879 14.840913 -20.646663 -2.264794 -0.392671 4.859393 1.512134 9.840764 -1.498734 1.178600 0.000000 -43.295800 8.631844 0.190859 -0.082508 9.508360 5.454853 -19.525089 2.875268 0.848625 4.519816 -0.355100 -2.046060 0.244470 -0.832900 0.000000 -60.500700 2.740529 -1.383318 5.712580 -0.135260 -1.352428 -2.004182 -6.283526 -1.261875 -1.166942 8.054374 -5.468912 -0.330937 -3.084846 -0.294050 1.776900 0.000000 0.000000 0.000000 2.234402 1.378086 0.772653 -60.712011 -12.091569 14.630167 -179.754364 -87.751858 179.966868 3.660224 8.783212 0.285860 -0.142516 0.229111 -0.000000 0.000000 0.000000 0.000000 0.000000 0.000000 0.000000 7.322662 -2.442035 -0.650388 67.254536 11.052898 19.790946 179.891470 88.743507 -179.995383 0.799144 2.194264 0.019176 -0.038038 -0.353249 0.000000 0.000000 0.000000 0.000000 0.000000 0.000000 0.000000 
-1.851421 17.276667 -0.703287 -171.499513 -76.211578 -169.701725 -10.635229 -0.353416 -3.137714 -4.249200 14.712974 -20.444985 -2.222718 -0.335254 5.451319 1.549295 10.078563 -1.576664 1.187500 0.000000 -43.541900 8.626465 0.169455 -0.099387 9.579084 5.489668 -19.175264 2.858320 0.813384 4.828349 -0.376242 -2.088116 -0.027895 -0.818100 0.000000 -60.287800 2.752601 -1.379267 5.675515 -0.127156 -1.349913 -2.006201 -6.250868 -1.264019 -1.132012 8.023199 -5.445215 -0.416802 -3.049905 -0.291221 1.757434 0.000000 0.000000 0.000000 1.989211 1.434755 0.838365 -60.357695 -12.055573 14.835753 -179.835787 -89.011065 179.967708 3.586949 8.778197 0.280232 -0.140927 0.223417 -0.000000 0.000000 0.000000 0.000000 0.000000 0.000000 0.000000 7.313230 -2.386605 -0.633824 67.181838 11.218768 20.135029 179.927453 89.742689 -179.995061 0.872323 2.285273 0.021470 -0.037548 -0.348343 0.000000 0.000000 0.000000 0.000000 0.000000 0.000000 0.000000 
-1.851654 17.275559 -0.738175 -171.826033 -76.200893 -169.771820 -10.642969 -0.327168 -3.115038 -4.037816 14.588173 -20.246404 -2.183298 -0.276123 6.078494 1.583229 10.294747 -1.664392 1.191000 0.000000 -43.842300 8.623509 0.146705 -0.118516 9.644295 5.498784 -18.817622 2.841547 0.775951 5.149847 -0.394725 -2.111766 -0.304739 -0.799100 0.000000 -60.075500 2.751382 -1.374625 5.634559 -0.121607 -1.346421 -2.007837 -6.217387 -1.265227 -1.091562 7.995329 -5.434529 -0.512881 -3.016369 -0.288376 1.735305 0.000000 0.000000 0.000000 1.758163 1.499194 0.901716 -60.022856 -12.016016 15.060433 0.077827 -89.651441 -0.031548 3.519707 8.768792 0.275004 -0.139508 0.217432 -0.000000 0.000000 0.000000 0.000000 0.000000 0.000000 0.000000 7.321034 -2.346458 -0.615307 67.109829 11.388172 20.492487 -0.033276 89.185568 0.005260 0.947310 2.380237 0.023963 -0.036848 -0.342979 0.000000 0.000000 0.000000 0.000000 0.000000 0.000000 0.000000 
-1.852303 17.274475 -0.773954 -172.206337 -76.194355 -169.801943 -10.650634 -0.298290 -3.090873 -3.835988 14.459147 -20.052573 -2.145414 -0.215079 6.743763 1.615429 10.499555 -1.759838 1.190700 -0.000000 -44.188000 8.622857 0.122916 -0.139158 9.701357 5.487710 -18.452666 2.824298 0.736644 5.481447 -0.411396 -2.122412 -0.584998 -0.777200 -0.000000 -59.861900 2.736480 -1.369299 5.589182 -0.118704 -1.341872 -2.009233 -6.183041 -1.265422 -1.045958 7.970995 -5.437178 -0.619475 -2.984320 -0.285518 1.710416 0.000000 0.000000 0.000000 1.543943 1.570384 0.962506 -59.711060 -11.970967 15.303576 -0.013448 -88.236643 -0.030726 3.460559 8.752845 0.270176 -0.138297 0.211201 -0.000000 0.000000 0.000000 0.000000 0.000000 0.000000 0.000000 7.346019 -2.321873 -0.594376 67.038676 11.560064 20.862121 0.009495 88.041430 0.005568 1.021761 2.477963 0.026558 -0.035886 -0.337154 0.000000 0.000000 0.000000 0.000000 0.000000 0.000000 0.000000 
-1.853394 17.273384 -0.810627 -172.644616 -76.192519 -169.777263 -10.657349 -0.267079 -3.060796 -3.646416 14.308769 -19.878782 -2.107445 -0.152231 7.454939 1.648605 10.709802 -1.861986 1.189201 -0.000000 -44.547200 8.623645 0.098013 -0.156210 9.746441 5.470687 -18.094931 2.805463 0.696149 5.823222 -0.428308 -2.132040 -0.868923 -0.754600 0.000001 -59.657800 2.707596 -1.362726 5.529775 -0.118482 -1.336090 -2.013847 -6.147713 -1.264720 -1.001386 7.949648 -5.434547 -0.730139 -2.953116 -0.282700 1.684722 0.000000 0.000000 0.000000 1.351494 1.637273 1.021898 -59.429141 -11.902425 15.560111 -0.108842 -86.749744 -0.029999 3.408632 8.727919 0.265549 -0.137264 0.204792 -0.000000 0.000000 0.000000 0.000000 0.000000 0.000000 0.000000 7.380192 -2.291782 -0.571787 66.977251 11.701431 21.221150 0.055432 86.836677 0.005890 1.102174 2.575506 0.029452 -0.034960 -0.330912 0.000000 0.000000 0.000000 0.000000 0.000000 0.000000 0.000000 
-1.854708 17.272316 -0.847936 -173.129318 -76.194472 -169.717751 -10.663312 -0.234333 -3.028904 -3.462575 14.135878 -19.710751 -2.067364 -0.086067 8.212282 1.683569 10.933918 -1.956826 1.189800 0.000001 -44.930700 8.626113 0.073244 -0.174613 9.781560 5.446902 -17.724011 2.785006 0.654723 6.164595 -0.445685 -2.143273 -1.153529 -0.731800 -0.000000 -59.443300 2.667754 -1.355592 5.468181 -0.120359 -1.329420 -2.017565 -6.111311 -1.263094 -0.951445 7.931408 -5.448612 -0.852545 -2.923456 -0.279848 1.655851 0.000000 0.000000 0.000000 1.177316 1.711333 1.078546 -59.175554 -11.829671 15.835332 -0.208427 -85.187629 -0.029314 3.365580 8.692623 0.261422 -0.136458 0.198209 -0.000000 0.000000 0.000000 0.000000 0.000000 0.000000 0.000000 7.430133 -2.281061 -0.546209 66.915944 11.850485 21.594505 0.105218 85.559060 0.006150 1.171373 2.674778 0.032049 -0.033550 -0.324241 0.000000 0.000000 0.000000 0.000000 0.000000 0.000000 0.000000 
-1.856376 17.271251 -0.885889 -173.659214 -76.201576 -169.609913 -10.667688 -0.200322 -2.989518 -3.287476 13.920488 -19.569487 -2.023304 -0.016499 9.026795 1.723045 11.188714 -2.038844 1.196200 0.000000 -45.303100 8.629061 0.048243 -0.188053 9.804257 5.432892 -17.358070 2.761901 0.613267 6.505995 -0.465994 -2.170541 -1.438703 -0.711200 -0.000000 -59.235999 2.618259 -1.347448 5.392222 -0.124057 -1.321979 -2.024723 -6.073789 -1.261024 -0.903716 7.915267 -5.454140 -0.978191 -2.894484 -0.277029 1.626361 0.000000 0.000000 0.000000 1.025812 1.779615 1.134430 -58.956659 -11.731556 16.123264 -0.311580 -83.556687 -0.028648 3.327758 8.646387 0.257295 -0.135820 0.191485 -0.000000 0.000000 0.000000 0.000000 0.000000 0.000000 0.000000 7.485275 -2.261581 -0.518938 66.865799 11.964523 21.952629 0.158165 84.224007 0.006384 1.238263 2.772123 0.034845 -0.032048 -0.317197 0.000000 0.000000 0.000000 0.000000 0.000000 0.000000 0.000000 
-1.858067 17.270215 -0.924245 -174.228658 -76.213921 -169.468333 -10.670618 -0.165731 -2.946251 -3.116044 13.659380 -19.442276 -1.973279 0.057992 9.898959 1.767415 11.480304 -2.089511 1.212600 -0.000000 -45.686200 8.632969 0.024421 -0.202234 9.816566 5.423560 -16.978335 2.736465 0.571896 6.838293 -0.488864 -2.212370 -1.722948 -0.692300 -0.000001 -59.013000 2.561040 -1.339218 5.313789 -0.129203 -1.314299 -2.031105 -6.035142 -1.258659 -0.851403 7.901797 -5.474813 -1.114861 -2.866902 -0.274169 1.593851 0.000000 0.000000 0.000000 0.892345 1.853357 1.188263 -58.769306 -11.628886 16.429294 -0.418410 -81.853775 -0.027994 3.293773 8.589574 0.253268 -0.135344 0.184584 -0.000000 0.000000 0.000000 0.000000 0.000000 0.000000 0.000000 7.552974 -2.260180 -0.488657 66.817569 12.084698 22.323323 0.215010 82.818717 0.006519 1.283980 2.871023 0.037044 -0.029922 -0.309797 0.000000 0.000000 0.000000 0.000000 0.000000 0.000000 0.000000 
-1.859836 17.269172 -0.962965 -174.834892 -76.232961 -169.284978 -10.671581 -0.130942 -2.894967 -2.950678 13.338572 -19.348177 -1.916101 0.137774 10.840048 1.817796 11.815395 -2.100447 1.242200 0.000000 -46.064500 8.637081 0.001585 -0.213169 9.817833 5.427797 -16.598825 2.708345 0.531297 7.161554 -0.515659 -2.276837 -2.005593 -0.676200 0.000001 -58.790200 2.497601 -1.330828 5.224596 -0.135495 -1.306717 -2.039909 -5.995431 -1.256603 -0.800612 7.890097 -5.489428 -1.255454 -2.839981 -0.271318 1.560426 0.000000 0.000000 0.000000 0.779194 1.922355 1.242079 -58.616765 -11.506211 16.747950 -0.528487 -80.084776 -0.027328 3.257898 8.525253 0.248840 -0.134958 0.177475 -0.000000 0.000000 0.000000 0.000000 0.000000 0.000000 0.000000 7.624131 -2.253422 -0.456529 66.780769 12.177153 22.681609 0.275011 81.355778 0.006585 1.316486 2.968624 0.038943 -0.027510 -0.302096 0.000000 0.000000 0.000000 0.000000 0.000000 0.000000 0.000000 
-1.861443 17.268150 -1.001957 -175.479334 -76.259876 -169.060093 -10.670539 -0.096382 -2.836199 -2.791413 12.953964 -19.290154 -1.851034 0.223742 11.856165 1.873630 12.191883 -2.058541 1.288099 0.000000 -46.459200 8.641723 -0.019580 -0.222985 9.808634 5.441357 -16.216816 2.677889 0.491570 7.472546 -0.545858 -2.361343 -2.285048 -0.662500 -0.000000 -58.563000 2.428179 -1.322992 5.128092 -0.142873 -1.299812 -2.049898 -5.954720 -1.255308 -0.749371 7.880546 -5.504982 -1.402055 -2.813875 -0.268452 1.525431 0.000000 0.000000 0.000000 0.684376 1.989285 1.295823 -58.497843 -11.370554 17.079434 -0.641830 -78.250192 -0.026633 3.214985 8.457455 0.243913 -0.134605 0.170089 -0.000000 0.000000 0.000000 0.000000 0.000000 0.000000 0.000000 7.700227 -2.249431 -0.422249 66.753900 12.254209 23.035057 0.338307 79.832055 0.006577 1.328350 3.066387 0.040245 -0.024641 -0.294130 0.000000 0.000000 0.000000 0.000000 0.000000 0.000000 0.000000 
